Coordinates
version=1
nRows=28
nColumns=23
inDegrees=yes

Units are S.I. units (second, meters, Newtons, ...)
Angles are in degrees.

endheader
time	pelvis_tilt	pelvis_list	pelvis_rotation	pelvis_tx	pelvis_ty	pelvis_tz	hip_flexion_r	hip_adduction_r	hip_rotation_r	knee_angle_r	knee_angle_r_beta	ankle_angle_r	subtalar_angle_r	mtp_angle_r	hip_flexion_l	hip_adduction_l	hip_rotation_l	knee_angle_l	knee_angle_l_beta	ankle_angle_l	subtalar_angle_l	mtp_angle_l
    123.00444400	    -19.73732209	      2.72785515	      5.86365278	      0.03313786	      1.37632330	      0.21490553	     61.29590673	     -8.63382916	      5.00705335	     54.78741380	      0.95622076	      7.94355964	      0.00000000	      0.00000000	     59.89558596	      0.81184701	      2.94602835	     90.55731344	      1.58052328	     10.08030288	      0.00000000	      0.00000000
    123.01333300	    -19.75098279	      3.23551929	      6.44651885	      0.03352225	      1.37599260	      0.21465632	     59.30372683	     -9.49689690	      4.51489330	     51.45299703	      0.89802421	      6.41820949	      0.00000000	      0.00000000	     61.43475372	      1.48153054	      2.77763165	     93.20808908	      1.62678804	     10.44843044	      0.00000000	      0.00000000
    123.02222200	    -19.88104827	      3.84236305	      7.01708651	      0.03385362	      1.37563854	      0.21441471	     57.47174574	    -10.42334707	      4.04293681	     48.24664358	      0.84206278	      4.69122404	      0.00000000	      0.00000000	     63.07704925	      2.17240917	      2.39754534	     95.63911173	      1.66921739	     10.85470060	      0.00000000	      0.00000000
    123.03111100	    -20.05529395	      4.22313850	      7.52990746	      0.03416253	      1.37530216	      0.21420731	     55.67490292	    -11.14705184	      3.38735100	     45.10281809	      0.78719268	      2.75966274	      0.00000000	      0.00000000	     64.81673631	      2.64626980	      2.10525566	     97.94534015	      1.70946867	     11.24116384	      0.00000000	      0.00000000
    123.04000000	    -20.25969742	      4.45931905	      8.04858860	      0.03441314	      1.37497616	      0.21396453	     53.92734153	    -11.76475822	      2.59954391	     42.09944439	      0.73477392	      0.76149918	      0.00000000	      0.00000000	     66.61907046	      3.03236873	      1.88425619	    100.08301055	      1.74677806	     11.60887183	      0.00000000	      0.00000000
    123.04888900	    -20.56654989	      4.87542344	      8.52053299	      0.03466498	      1.37465051	      0.21383562	     52.39429873	    -12.45389310	      2.01442462	     39.34129458	      0.68663512	     -1.40250759	      0.00000000	      0.00000000	     68.44815310	      3.44646671	      1.39856392	    101.96713260	      1.77966219	     12.11112612	      0.00000000	      0.00000000
    123.05777800	    -20.88272394	      5.09850132	      8.97890375	      0.03489774	      1.37433580	      0.21371750	     50.91326136	    -12.97506184	      1.31693393	     36.78078421	      0.64194579	     -3.53942515	      0.00000000	      0.00000000	     70.30485226	      3.73010431	      1.03285328	    103.67205619	      1.80941872	     12.60088683	      0.00000000	      0.00000000
    123.06666700	    -21.20759717	      5.36807849	      9.39951933	      0.03503902	      1.37400420	      0.21359619	     49.55892884	    -13.48626795	      0.74280576	     34.54412797	      0.60290877	     -5.38013528	      0.00000000	      0.00000000	     72.12028654	      4.00350203	      0.58153415	    105.15134622	      1.83523720	     13.10404078	      0.00000000	      0.00000000
    123.07555600	    -21.53752636	      5.37904840	      9.82345104	      0.03522693	      1.37372707	      0.21350599	     48.26398256	    -13.77646584	      0.05532342	     32.51760843	      0.56753933	     -7.44968568	      0.00000000	      0.00000000	     73.93429897	      4.14500324	      0.33066126	    106.41137634	      1.85722888	     13.67293674	      0.00000000	      0.00000000
    123.08444400	    -21.81870152	      5.37456912	     10.19429527	      0.03532429	      1.37346669	      0.21339570	     47.05808573	    -13.99686094	     -0.52694544	     30.87436299	      0.53885929	     -9.09719670	      0.00000000	      0.00000000	     75.64552864	      4.25978726	      0.07674780	    107.44129202	      1.87520430	     14.19831965	      0.00000000	      0.00000000
    123.09333300	    -22.08377715	      5.39503368	     10.52418450	      0.03539589	      1.37325756	      0.21327550	     45.98549314	    -14.19491147	     -0.97824549	     29.61864681	      0.51694291	    -10.46272744	      0.00000000	      0.00000000	     77.24683122	      4.36830396	     -0.22455397	    108.20828039	      1.88859077	     14.78466661	      0.00000000	      0.00000000
    123.10222200	    -22.30860092	      5.38244769	     10.80905040	      0.03542587	      1.37310997	      0.21314161	     45.02322644	    -14.32609891	     -1.34857529	     28.75760838	      0.50191495	    -11.49354432	      0.00000000	      0.00000000	     78.71448782	      4.44699834	     -0.50737013	    108.70867342	      1.89732428	     15.37922518	      0.00000000	      0.00000000
    123.11111100	    -22.48435074	      5.39811693	     11.03955440	      0.03544101	      1.37307890	      0.21300922	     44.17988689	    -14.44071596	     -1.62201609	     28.32498693	      0.49436428	    -12.11621253	      0.00000000	      0.00000000	     80.00735643	      4.51270453	     -0.82631586	    108.92793070	      1.90115104	     16.01002203	      0.00000000	      0.00000000
    123.12000000	    -22.53694048	      5.39862220	     11.17815225	      0.03533993	      1.37319643	      0.21298646	     43.38710359	    -14.45224731	     -1.72586135	     28.30069858	      0.49394037	    -12.31332488	      0.00000000	      0.00000000	     81.07002247	      4.50904741	     -1.11964664	    108.87585203	      1.90024209	     16.41927880	      0.00000000	      0.00000000
    123.12888900	    -22.62790234	      5.29241829	     11.30768439	      0.03524437	      1.37325304	      0.21272878	     42.83381209	    -14.41875351	     -1.96746118	     28.72091117	      0.50127446	    -12.48010399	      0.00000000	      0.00000000	     82.04733576	      4.52804435	     -1.31083445	    108.57507106	      1.89499248	     17.12607376	      0.00000000	      0.00000000
    123.13777800	    -22.54651835	      5.14575098	     11.31578489	      0.03512309	      1.37384544	      0.21267491	     42.18885261	    -14.20083561	     -1.93164818	     29.23759899	      0.51029237	    -12.53084103	      0.00000000	      0.00000000	     82.69310483	      4.44263387	     -1.44510058	    107.90243678	      1.88325279	     17.30581920	      0.00000000	      0.00000000
    123.14666700	    -22.72721556	      5.14325586	     11.35176101	      0.03478523	      1.37354735	      0.21238103	     42.22676158	    -14.23126559	     -1.88779121	     30.80712581	      0.53768578	    -11.45093794	      0.00000000	      0.00000000	     83.44488876	      4.48647676	     -1.71417011	    107.08989526	      1.86907127	     18.27380916	      0.00000000	      0.00000000
    123.15555600	    -22.69873679	      5.07725315	     11.29188882	      0.03445346	      1.37379630	      0.21225825	     42.15000004	    -14.09506902	     -1.71606985	     32.48166999	      0.56691209	    -10.52464703	      0.00000000	      0.00000000	     83.80861396	      4.44552454	     -1.88714610	    105.93900580	      1.84898446	     18.84400004	      0.00000000	      0.00000000
    123.16444400	    -22.64544463	      5.02451089	     11.17180919	      0.03404136	      1.37405742	      0.21218092	     42.25270111	    -13.93202903	     -1.41648732	     34.54761895	      0.60296970	     -9.39086512	      0.00000000	      0.00000000	     83.96129552	      4.38471887	     -2.04566417	    104.51324564	      1.82410025	     19.38220180	      0.00000000	      0.00000000
    123.17333300	    -22.58630460	      4.99218961	     11.00450814	      0.03357610	      1.37432342	      0.21218027	     42.54174708	    -13.74962131	     -0.98195806	     36.96873530	      0.64522615	     -8.10862294	      0.00000000	      0.00000000	     83.91286868	      4.31326226	     -2.19697071	    102.81992255	      1.79454619	     19.88980056	      0.00000000	      0.00000000
    123.18222200	    -22.47881937	      4.90454630	     10.80830492	      0.03309120	      1.37458317	      0.21212589	     42.95211176	    -13.50838696	     -0.54814002	     39.68983050	      0.69271822	     -6.75084464	      0.00000000	      0.00000000	     83.63353023	      4.24338971	     -2.24304648	    100.89241428	      1.76090482	     20.44131828	      0.00000000	      0.00000000
    123.19111100	    -22.38036046	      4.85896625	     10.56625329	      0.03262628	      1.37484437	      0.21220510	     43.53209658	    -13.26050363	      0.01298322	     42.67109213	      0.74475105	     -5.38558576	      0.00000000	      0.00000000	     83.14935359	      4.15058731	     -2.31744633	     98.69303508	      1.72251841	     20.90607613	      0.00000000	      0.00000000
    123.20000000	    -22.24576376	      4.77512330	     10.29750855	      0.03219737	      1.37510629	      0.21228280	     44.21230186	    -12.96624437	      0.56307625	     45.84899474	      0.80021592	     -4.06147545	      0.00000000	      0.00000000	     82.44052046	      4.04975153	     -2.31284599	     96.27017191	      1.68023147	     21.36343834	      0.00000000	      0.00000000
    123.20888900	    -22.08022673	      4.65477279	      9.99658435	      0.03183345	      1.37537867	      0.21239015	     44.97869976	    -12.62090426	      1.10543795	     49.17095271	      0.85819502	     -2.83714870	      0.00000000	      0.00000000	     81.51180897	      3.92755738	     -2.24107005	     93.62490626	      1.63406288	     21.77115248	      0.00000000	      0.00000000
    123.21777800	    -21.88017716	      4.52080346	      9.65924848	      0.03156395	      1.37569164	      0.21251853	     45.81274177	    -12.24571475	      1.63946565	     52.58275485	      0.91774220	     -1.78089201	      0.00000000	      0.00000000	     80.35546654	      3.77823108	     -2.13356477	     90.76108902	      1.58407984	     22.12927376	      0.00000000	      0.00000000
    123.22666700	    -21.64139289	      4.25990443	      9.28466725	      0.03143041	      1.37599454	      0.21264927	     46.68069635	    -11.74993972	      2.07573426	     56.03397786	      0.97797741	     -0.80913165	      0.00000000	      0.00000000	     79.00828454	      3.55769309	     -1.88961298	     87.72007585	      1.53100414	     22.41424287	      0.00000000	      0.00000000
    123.23555600	    -21.36383332	      4.00649729	      8.85194605	      0.03135850	      1.37635775	      0.21282454	     47.59760785	    -11.22828516	      2.52033164	     59.50221912	      1.03850964	     -0.08007944	      0.00000000	      0.00000000	     77.44731249	      3.27989472	     -1.65450033	     84.48257259	      1.47449905	     22.56107722	      0.00000000	      0.00000000
    123.24444400	    -21.11345343	      3.19555917	      8.41331327	      0.03134731	      1.37639993	      0.21272225	     48.58085113	    -10.31477816	      2.48803816	     62.85777660	      1.09707516	     -0.07369783	      0.00000000	      0.00000000	     75.93392644	      2.80012408	     -0.89682479	     81.24753610	      1.41803701	     22.58934468	      0.00000000	      0.00000000
